<svg viewBox="0 0 256 128" xmlns="http://www.w3.org/2000/svg">
  <g>
    <path
      d="M128 64 L128 0 A64 64 0 1 1 80.577105 106.977541Z"
      fill="cyan"
    />
    <path
      d="M128 64 L80.577105 106.977541 A64 64 0 0 1 108.763917 2.959250Z"
      fill="lime"
    />
    <path
      d="M128 64 L108.763917 2.959250 A64 64 0 0 1 128 0Z"
      fill="pink"
    />
  </g>
  <g font-size="10">
    <text x="139.515938" y="93.856040">(127)63.5%</text>
    <text x="97.113894" y="55.630502">(45)21.5%</text>
    <text x="120.454920" y="32.902222">(28)14%</text>
  </g>
  <g transform="translate(128, 64)">
    <path
      d="M0 0 L0 -10 A64 64 0 0 1 47.422895 -96.977541Z"
      fill="cyan"
      opacity="0.8"
    />
    <path
      d="M0 0 L47.422895 -96.977541 A64 64 0 0 1 27.436083 -2.959250Z"
      fill="lime"
      opacity="0.8"
    />
    <path
      d="M0 0 L27.436083 -2.959250 A64 64 0 0 1 0 -10Z"
      fill="pink"
      opacity="0.8"
    />
  </g>
</svg>
