<svg viewBox="0 0 256 128" xmlns="http://www.w3.org/2000/svg">
  <defs>
    <marker
      id="dot"
      markerWidth="4"
      markerHeight="4"
      refX="2"
      refY="2">
      <circle cx="2" cy="2" r="2" stroke="none" fill="cyan" />
    </marker>
  </defs>
  <g fill="cyan" transform="translate(-2, -2)">
    <rect x="32" y="32" width="4" height="4" />
    <rect x="64" y="16" width="4" height="4" />
    <rect x="96" y="48" width="4" height="4" />
    <rect x="128" y="112" width="4" height="4" />
    <rect x="160" y="64" width="4" height="4" />
    <rect x="192" y="96" width="4" height="4" />
    <rect x="224" y="80" width="4" height="4" />
  </g>
  <g fill="red">
    <circle cx="32" cy="64" r="2" />
    <circle cx="64" cy="32" r="2" />
    <circle cx="96" cy="16" r="2" />
    <circle cx="128" cy="96" r="2" />
    <circle cx="160" cy="80" r="2" />
    <circle cx="192" cy="48" r="2" />
    <circle cx="224" cy="112" r="2" />
  </g>
  <g fill="lime" transform="translate(-2, -2)">
    <path d="M32 112 l4 0 l-2 4z" />
    <path d="M64 64 l4 0 l-2 4z" />
    <path d="M96 80 l4 0 l-2 4z" />
    <path d="M128 16 l4 0 l-2 4z" />
    <path d="M160 48 l4 0 l-2 4z" />
    <path d="M192 32 l4 0 l-2 4z" />
    <path d="M224 96 l4 0 l-2 4z" />
  </g>
  <g opacity="0.2" stroke="white" stroke-width="1">
    <line x1="0" x2="256" y1="128" y2="128" />
    <line x1="0" x2="0" y1="0" y2="128" />
  </g>
  <g opacity="0.1" stroke="white" stroke-dasharray="1" stroke-width="0.25">
    <line x1="0" x2="256" y1="0" y2="0" />
    <line x1="0" x2="256" y1="16" y2="16" />
    <line x1="0" x2="256" y1="32" y2="32" />
    <line x1="0" x2="256" y1="48" y2="48" />
    <line x1="0" x2="256" y1="64" y2="64" />
    <line x1="0" x2="256" y1="80" y2="80" />
    <line x1="0" x2="256" y1="96" y2="96" />
    <line x1="0" x2="256" y1="112" y2="112" />
  </g>
  <g opacity="0.1" stroke="white" stroke-dasharray="1" stroke-width="0.25">
    <line x1="32" x2="32" y1="0" y2="128" />
    <line x1="64" x2="64" y1="0" y2="128" />
    <line x1="96" x2="96" y1="0" y2="128" />
    <line x1="128" x2="128" y1="0" y2="128" />
    <line x1="160" x2="160" y1="0" y2="128" />
    <line x1="192" x2="192" y1="0" y2="128" />
    <line x1="224" x2="224" y1="0" y2="128" />
    <line x1="256" x2="256" y1="0" y2="128" />
  </g>
</svg>